<svg width="191" height="46" viewBox="0 0 191 46" fill="none" xmlns="http://www.w3.org/2000/svg">
<path d="M36.2 32.24C35.08 32.24 34.072 32.104 33.176 31.832C32.28 31.544 31.424 31.048 30.608 30.344C30.4 30.168 30.24 29.968 30.128 29.744C30.016 29.52 29.96 29.296 29.96 29.072C29.96 28.704 30.088 28.384 30.344 28.112C30.616 27.824 30.952 27.68 31.352 27.68C31.656 27.68 31.928 27.776 32.168 27.968C32.776 28.464 33.376 28.84 33.968 29.096C34.576 29.352 35.32 29.48 36.2 29.48C36.792 29.48 37.336 29.392 37.832 29.216C38.328 29.024 38.728 28.776 39.032 28.472C39.336 28.152 39.488 27.792 39.488 27.392C39.488 26.912 39.344 26.504 39.056 26.168C38.768 25.832 38.328 25.552 37.736 25.328C37.144 25.088 36.392 24.904 35.48 24.776C34.616 24.648 33.856 24.456 33.2 24.2C32.544 23.928 31.992 23.592 31.544 23.192C31.112 22.776 30.784 22.296 30.56 21.752C30.336 21.192 30.224 20.568 30.224 19.88C30.224 18.84 30.488 17.952 31.016 17.216C31.56 16.48 32.288 15.92 33.2 15.536C34.112 15.152 35.12 14.96 36.224 14.96C37.264 14.96 38.224 15.12 39.104 15.44C40 15.744 40.728 16.136 41.288 16.616C41.752 16.984 41.984 17.408 41.984 17.888C41.984 18.24 41.848 18.56 41.576 18.848C41.304 19.136 40.984 19.28 40.616 19.28C40.376 19.28 40.16 19.208 39.968 19.064C39.712 18.84 39.368 18.632 38.936 18.44C38.504 18.232 38.048 18.064 37.568 17.936C37.088 17.792 36.64 17.72 36.224 17.72C35.536 17.72 34.952 17.808 34.472 17.984C34.008 18.16 33.656 18.4 33.416 18.704C33.176 19.008 33.056 19.36 33.056 19.76C33.056 20.24 33.192 20.64 33.464 20.96C33.752 21.264 34.16 21.512 34.688 21.704C35.216 21.88 35.848 22.04 36.584 22.184C37.544 22.36 38.384 22.568 39.104 22.808C39.84 23.048 40.448 23.36 40.928 23.744C41.408 24.112 41.768 24.584 42.008 25.16C42.248 25.72 42.368 26.408 42.368 27.224C42.368 28.264 42.08 29.16 41.504 29.912C40.928 30.664 40.168 31.24 39.224 31.64C38.296 32.04 37.288 32.24 36.2 32.24ZM47.5923 30.536C47.5923 30.952 47.4563 31.304 47.1843 31.592C46.9123 31.864 46.5683 32 46.1523 32C45.7363 32 45.3923 31.864 45.1203 31.592C44.8483 31.304 44.7123 30.952 44.7123 30.536V20.624C44.7123 20.208 44.8483 19.864 45.1203 19.592C45.3923 19.304 45.7363 19.16 46.1523 19.16C46.5683 19.16 46.9123 19.304 47.1843 19.592C47.4563 19.864 47.5923 20.208 47.5923 20.624V30.536ZM46.1283 17.6C45.5843 17.6 45.2003 17.512 44.9763 17.336C44.7523 17.16 44.6403 16.848 44.6403 16.4V15.944C44.6403 15.48 44.7603 15.168 45.0003 15.008C45.2563 14.832 45.6403 14.744 46.1523 14.744C46.7123 14.744 47.1043 14.832 47.3283 15.008C47.5523 15.184 47.6643 15.496 47.6643 15.944V16.4C47.6643 16.864 47.5443 17.184 47.3043 17.36C47.0643 17.52 46.6723 17.6 46.1283 17.6ZM57.2962 18.92C58.5762 18.92 59.5202 19.232 60.1282 19.856C60.7362 20.464 61.1362 21.256 61.3282 22.232L60.9202 22.016L61.1122 21.632C61.3042 21.264 61.6002 20.872 62.0002 20.456C62.4002 20.024 62.8802 19.664 63.4402 19.376C64.0162 19.072 64.6562 18.92 65.3602 18.92C66.5122 18.92 67.3842 19.168 67.9762 19.664C68.5842 20.16 69.0002 20.824 69.2242 21.656C69.4482 22.472 69.5602 23.384 69.5602 24.392V30.536C69.5602 30.952 69.4242 31.304 69.1522 31.592C68.8802 31.864 68.5362 32 68.1202 32C67.7042 32 67.3602 31.864 67.0882 31.592C66.8162 31.304 66.6802 30.952 66.6802 30.536V24.392C66.6802 23.864 66.6162 23.392 66.4882 22.976C66.3602 22.544 66.1282 22.2 65.7922 21.944C65.4562 21.688 64.9762 21.56 64.3522 21.56C63.7442 21.56 63.2242 21.688 62.7922 21.944C62.3602 22.2 62.0322 22.544 61.8082 22.976C61.6002 23.392 61.4962 23.864 61.4962 24.392V30.536C61.4962 30.952 61.3602 31.304 61.0882 31.592C60.8162 31.864 60.4722 32 60.0562 32C59.6402 32 59.2962 31.864 59.0242 31.592C58.7522 31.304 58.6162 30.952 58.6162 30.536V24.392C58.6162 23.864 58.5522 23.392 58.4242 22.976C58.2962 22.544 58.0642 22.2 57.7282 21.944C57.3922 21.688 56.9122 21.56 56.2882 21.56C55.6802 21.56 55.1602 21.688 54.7282 21.944C54.2962 22.2 53.9682 22.544 53.7442 22.976C53.5362 23.392 53.4322 23.864 53.4322 24.392V30.536C53.4322 30.952 53.2962 31.304 53.0242 31.592C52.7522 31.864 52.4082 32 51.9922 32C51.5762 32 51.2322 31.864 50.9602 31.592C50.6882 31.304 50.5522 30.952 50.5522 30.536V20.624C50.5522 20.208 50.6882 19.864 50.9602 19.592C51.2322 19.304 51.5762 19.16 51.9922 19.16C52.4082 19.16 52.7522 19.304 53.0242 19.592C53.2962 19.864 53.4322 20.208 53.4322 20.624V21.656L53.0722 21.584C53.2162 21.312 53.4162 21.024 53.6722 20.72C53.9282 20.4 54.2402 20.104 54.6082 19.832C54.9762 19.56 55.3842 19.344 55.8322 19.184C56.2802 19.008 56.7682 18.92 57.2962 18.92ZM79.3252 18.92C80.4452 18.92 81.4452 19.208 82.3252 19.784C83.2212 20.344 83.9252 21.12 84.4372 22.112C84.9652 23.104 85.2292 24.256 85.2292 25.568C85.2292 26.88 84.9652 28.04 84.4372 29.048C83.9252 30.04 83.2292 30.824 82.3492 31.4C81.4852 31.96 80.5092 32.24 79.4212 32.24C78.7812 32.24 78.1812 32.136 77.6212 31.928C77.0612 31.72 76.5652 31.456 76.1332 31.136C75.7172 30.816 75.3892 30.496 75.1492 30.176C74.9252 29.84 74.8132 29.56 74.8132 29.336L75.5572 29.024V35.336C75.5572 35.752 75.4212 36.096 75.1492 36.368C74.8772 36.656 74.5332 36.8 74.1172 36.8C73.7012 36.8 73.3572 36.664 73.0852 36.392C72.8132 36.12 72.6772 35.768 72.6772 35.336V20.624C72.6772 20.208 72.8132 19.864 73.0852 19.592C73.3572 19.304 73.7012 19.16 74.1172 19.16C74.5332 19.16 74.8772 19.304 75.1492 19.592C75.4212 19.864 75.5572 20.208 75.5572 20.624V21.8L75.1492 21.584C75.1492 21.376 75.2612 21.128 75.4852 20.84C75.7092 20.536 76.0132 20.24 76.3972 19.952C76.7812 19.648 77.2212 19.4 77.7172 19.208C78.2292 19.016 78.7652 18.92 79.3252 18.92ZM78.9652 21.56C78.2612 21.56 77.6452 21.736 77.1172 22.088C76.5892 22.44 76.1732 22.92 75.8692 23.528C75.5812 24.12 75.4372 24.8 75.4372 25.568C75.4372 26.32 75.5812 27.008 75.8692 27.632C76.1732 28.24 76.5892 28.72 77.1172 29.072C77.6452 29.424 78.2612 29.6 78.9652 29.6C79.6692 29.6 80.2772 29.424 80.7892 29.072C81.3172 28.72 81.7252 28.24 82.0132 27.632C82.3172 27.008 82.4692 26.32 82.4692 25.568C82.4692 24.8 82.3172 24.12 82.0132 23.528C81.7252 22.92 81.3172 22.44 80.7892 22.088C80.2772 21.736 79.6692 21.56 78.9652 21.56ZM90.8675 30.536C90.8675 30.952 90.7235 31.304 90.4355 31.592C90.1635 31.864 89.8195 32 89.4035 32C89.0035 32 88.6675 31.864 88.3955 31.592C88.1235 31.304 87.9875 30.952 87.9875 30.536V15.704C87.9875 15.288 88.1235 14.944 88.3955 14.672C88.6835 14.384 89.0355 14.24 89.4515 14.24C89.8675 14.24 90.2035 14.384 90.4595 14.672C90.7315 14.944 90.8675 15.288 90.8675 15.704V30.536ZM108.391 15.2C108.775 15.2 109.111 15.344 109.399 15.632C109.703 15.904 109.855 16.248 109.855 16.664V30.536C109.855 30.952 109.703 31.304 109.399 31.592C109.095 31.864 108.743 32 108.343 32C107.895 32 107.535 31.864 107.263 31.592C106.991 31.304 106.855 30.952 106.855 30.536V16.664C106.855 16.248 106.999 15.904 107.287 15.632C107.575 15.344 107.943 15.2 108.391 15.2ZM119.023 15.2C119.471 15.2 119.831 15.344 120.103 15.632C120.375 15.904 120.511 16.248 120.511 16.664V30.536C120.511 30.952 120.367 31.304 120.079 31.592C119.807 31.864 119.439 32 118.975 32C118.591 32 118.247 31.864 117.943 31.592C117.655 31.304 117.511 30.952 117.511 30.536V16.664C117.511 16.248 117.663 15.904 117.967 15.632C118.271 15.344 118.623 15.2 119.023 15.2ZM108.319 22.184H119.023V24.944H108.319V22.184ZM133.393 19.16C133.809 19.16 134.153 19.304 134.425 19.592C134.697 19.864 134.833 20.208 134.833 20.624V26.72C134.833 28.416 134.361 29.76 133.417 30.752C132.473 31.744 131.113 32.24 129.337 32.24C127.561 32.24 126.201 31.744 125.257 30.752C124.329 29.76 123.865 28.416 123.865 26.72V20.624C123.865 20.208 124.001 19.864 124.273 19.592C124.545 19.304 124.889 19.16 125.305 19.16C125.721 19.16 126.065 19.304 126.337 19.592C126.609 19.864 126.745 20.208 126.745 20.624V26.72C126.745 27.696 126.961 28.424 127.393 28.904C127.825 29.368 128.473 29.6 129.337 29.6C130.217 29.6 130.873 29.368 131.305 28.904C131.737 28.424 131.953 27.696 131.953 26.72V20.624C131.953 20.208 132.089 19.864 132.361 19.592C132.633 19.304 132.977 19.16 133.393 19.16ZM144.695 18.92C145.975 18.92 146.919 19.232 147.527 19.856C148.135 20.464 148.535 21.256 148.727 22.232L148.319 22.016L148.511 21.632C148.703 21.264 148.999 20.872 149.399 20.456C149.799 20.024 150.279 19.664 150.839 19.376C151.415 19.072 152.055 18.92 152.759 18.92C153.911 18.92 154.783 19.168 155.375 19.664C155.983 20.16 156.399 20.824 156.623 21.656C156.847 22.472 156.959 23.384 156.959 24.392V30.536C156.959 30.952 156.823 31.304 156.551 31.592C156.279 31.864 155.935 32 155.519 32C155.103 32 154.759 31.864 154.487 31.592C154.215 31.304 154.079 30.952 154.079 30.536V24.392C154.079 23.864 154.015 23.392 153.887 22.976C153.759 22.544 153.527 22.2 153.191 21.944C152.855 21.688 152.375 21.56 151.751 21.56C151.143 21.56 150.623 21.688 150.191 21.944C149.759 22.2 149.431 22.544 149.207 22.976C148.999 23.392 148.895 23.864 148.895 24.392V30.536C148.895 30.952 148.759 31.304 148.487 31.592C148.215 31.864 147.871 32 147.455 32C147.039 32 146.695 31.864 146.423 31.592C146.151 31.304 146.015 30.952 146.015 30.536V24.392C146.015 23.864 145.951 23.392 145.823 22.976C145.695 22.544 145.463 22.2 145.127 21.944C144.791 21.688 144.311 21.56 143.687 21.56C143.079 21.56 142.559 21.688 142.127 21.944C141.695 22.2 141.367 22.544 141.143 22.976C140.935 23.392 140.831 23.864 140.831 24.392V30.536C140.831 30.952 140.695 31.304 140.423 31.592C140.151 31.864 139.807 32 139.391 32C138.975 32 138.631 31.864 138.359 31.592C138.087 31.304 137.951 30.952 137.951 30.536V20.624C137.951 20.208 138.087 19.864 138.359 19.592C138.631 19.304 138.975 19.16 139.391 19.16C139.807 19.16 140.151 19.304 140.423 19.592C140.695 19.864 140.831 20.208 140.831 20.624V21.656L140.471 21.584C140.615 21.312 140.815 21.024 141.071 20.72C141.327 20.4 141.639 20.104 142.007 19.832C142.375 19.56 142.783 19.344 143.231 19.184C143.679 19.008 144.167 18.92 144.695 18.92ZM170.588 18.92C171.004 18.92 171.348 19.056 171.62 19.328C171.892 19.6 172.028 19.952 172.028 20.384V30.536C172.028 30.952 171.892 31.304 171.62 31.592C171.348 31.864 171.004 32 170.588 32C170.172 32 169.828 31.864 169.556 31.592C169.284 31.304 169.148 30.952 169.148 30.536V29.36L169.676 29.576C169.676 29.784 169.564 30.04 169.34 30.344C169.116 30.632 168.812 30.92 168.428 31.208C168.044 31.496 167.588 31.744 167.06 31.952C166.548 32.144 165.988 32.24 165.38 32.24C164.276 32.24 163.276 31.96 162.38 31.4C161.484 30.824 160.772 30.04 160.244 29.048C159.732 28.04 159.476 26.888 159.476 25.592C159.476 24.28 159.732 23.128 160.244 22.136C160.772 21.128 161.476 20.344 162.356 19.784C163.236 19.208 164.212 18.92 165.284 18.92C165.972 18.92 166.604 19.024 167.18 19.232C167.756 19.44 168.252 19.704 168.668 20.024C169.1 20.344 169.428 20.672 169.652 21.008C169.892 21.328 170.012 21.6 170.012 21.824L169.148 22.136V20.384C169.148 19.968 169.284 19.624 169.556 19.352C169.828 19.064 170.172 18.92 170.588 18.92ZM165.74 29.6C166.444 29.6 167.06 29.424 167.588 29.072C168.116 28.72 168.524 28.24 168.812 27.632C169.116 27.024 169.268 26.344 169.268 25.592C169.268 24.824 169.116 24.136 168.812 23.528C168.524 22.92 168.116 22.44 167.588 22.088C167.06 21.736 166.444 21.56 165.74 21.56C165.052 21.56 164.444 21.736 163.916 22.088C163.388 22.44 162.972 22.92 162.668 23.528C162.38 24.136 162.236 24.824 162.236 25.592C162.236 26.344 162.38 27.024 162.668 27.632C162.972 28.24 163.388 28.72 163.916 29.072C164.444 29.424 165.052 29.6 165.74 29.6ZM182.01 18.92C183.194 18.92 184.09 19.168 184.698 19.664C185.322 20.16 185.746 20.824 185.97 21.656C186.21 22.472 186.33 23.384 186.33 24.392V30.536C186.33 30.952 186.194 31.304 185.922 31.592C185.65 31.864 185.306 32 184.89 32C184.474 32 184.13 31.864 183.858 31.592C183.586 31.304 183.45 30.952 183.45 30.536V24.392C183.45 23.864 183.378 23.392 183.234 22.976C183.106 22.544 182.866 22.2 182.514 21.944C182.162 21.688 181.658 21.56 181.002 21.56C180.362 21.56 179.818 21.688 179.37 21.944C178.938 22.2 178.602 22.544 178.362 22.976C178.138 23.392 178.026 23.864 178.026 24.392V30.536C178.026 30.952 177.89 31.304 177.618 31.592C177.346 31.864 177.002 32 176.586 32C176.17 32 175.826 31.864 175.554 31.592C175.282 31.304 175.146 30.952 175.146 30.536V20.624C175.146 20.208 175.282 19.864 175.554 19.592C175.826 19.304 176.17 19.16 176.586 19.16C177.002 19.16 177.346 19.304 177.618 19.592C177.89 19.864 178.026 20.208 178.026 20.624V21.656L177.666 21.584C177.81 21.312 178.018 21.024 178.29 20.72C178.562 20.4 178.882 20.104 179.25 19.832C179.618 19.56 180.034 19.344 180.498 19.184C180.962 19.008 181.466 18.92 182.01 18.92Z" fill="#222927"/>
<path d="M96.9283 30.536C96.9283 30.952 96.7923 31.304 96.5203 31.592C96.2483 31.864 95.9043 32 95.4883 32C95.0723 32 94.7283 31.864 94.4563 31.592C94.1843 31.304 94.0483 30.952 94.0483 30.536V20.624C94.0483 20.208 94.1843 19.864 94.4563 19.592C94.7283 19.304 95.0723 19.16 95.4883 19.16C95.9043 19.16 96.2483 19.304 96.5203 19.592C96.7923 19.864 96.9283 20.208 96.9283 20.624V30.536ZM95.4643 17.6C94.9203 17.6 94.5363 17.512 94.3123 17.336C94.0883 17.16 93.9763 16.848 93.9763 16.4V15.944C93.9763 15.48 94.0963 15.168 94.3363 15.008C94.5923 14.832 94.9763 14.744 95.4883 14.744C96.0483 14.744 96.4403 14.832 96.6643 15.008C96.8883 15.184 97.0003 15.496 97.0003 15.944V16.4C97.0003 16.864 96.8803 17.184 96.6403 17.36C96.4003 17.52 96.0083 17.6 95.4643 17.6Z" fill="#0EAB8C"/>
<g filter="url(#filter0_i_4449_217)">
<path d="M18.0502 28.1262C14.2821 31.0708 8.86196 31.0032 5.13133 28.0112C3.56175 26.7847 2.31413 25.4815 1.38848 24.1016C0.462826 22.7217 0 21.2461 0 19.6746C0 18.1797 0.583564 16.8957 1.75069 15.8225C2.87757 14.7109 4.2258 14.1552 5.79539 14.1552C7.36497 14.1552 8.73333 14.7109 9.90046 15.8225C11.0273 16.8957 11.5908 18.1797 11.5908 19.6746C11.5908 18.1797 12.1743 16.8957 13.3415 15.8225C14.4683 14.7109 15.8166 14.1552 17.3862 14.1552C18.9558 14.1552 20.3241 14.7109 21.4912 15.8225C22.6181 16.8957 23.1816 18.1797 23.1816 19.6746C23.1816 21.2844 22.7187 22.7984 21.7931 24.2166C20.8272 25.5964 19.5796 26.8996 18.0502 28.1262Z" fill="url(#paint0_linear_4449_217)"/>
</g>
<rect x="6.68042" y="19.2739" width="9.3424" height="25.7259" rx="4.6712" stroke="#222927" stroke-width="2"/>
<circle cx="11.5225" cy="6.66141" r="5.66141" fill="#0EAB8C" stroke="#222927" stroke-width="2"/>
<defs>
<filter id="filter0_i_4449_217" x="0" y="14.1552" width="23.1815" height="16.4504" filterUnits="userSpaceOnUse" color-interpolation-filters="sRGB">
<feFlood flood-opacity="0" result="BackgroundImageFix"/>
<feBlend mode="normal" in="SourceGraphic" in2="BackgroundImageFix" result="shape"/>
<feColorMatrix in="SourceAlpha" type="matrix" values="0 0 0 0 0 0 0 0 0 0 0 0 0 0 0 0 0 0 127 0" result="hardAlpha"/>
<feOffset dy="0.310112"/>
<feGaussianBlur stdDeviation="0.206742"/>
<feComposite in2="hardAlpha" operator="arithmetic" k2="-1" k3="1"/>
<feColorMatrix type="matrix" values="0 0 0 0 1 0 0 0 0 1 0 0 0 0 1 0 0 0 0.31 0"/>
<feBlend mode="normal" in2="shape" result="effect1_innerShadow_4449_217"/>
</filter>
<linearGradient id="paint0_linear_4449_217" x1="11.5908" y1="14.1552" x2="11.5908" y2="32.6682" gradientUnits="userSpaceOnUse">
<stop stop-color="#BFEBE2"/>
<stop offset="0.127967" stop-color="#84D2C3"/>
<stop offset="1" stop-color="#0EAB8C"/>
</linearGradient>
</defs>
</svg>
